<?xml version="1.0" encoding="UTF-8" standalone="no"?>
<!DOCTYPE svg PUBLIC "-//W3C//DTD SVG 1.1//EN" "http://www.w3.org/Graphics/SVG/1.1/DTD/svg11.dtd">
<svg width="100%" height="100%" viewBox="0 0 900 900" version="1.1" xmlns="http://www.w3.org/2000/svg" xmlns:xlink="http://www.w3.org/1999/xlink" xml:space="preserve" xmlns:serif="http://www.serif.com/" style="fill-rule:evenodd;clip-rule:evenodd;stroke-linejoin:round;stroke-miterlimit:2;">
    <g id="Layer-1" serif:id="Layer 1" transform="matrix(4.36893,0,0,4.36893,-21.8439,-21.8439)">
        <g transform="matrix(0,-1,-1,0,108,5)">
            <path d="M-103,-103C-46.115,-103 0,-56.886 0,0C0,56.886 -46.115,103 -103,103C-159.885,103 -206,56.886 -206,0C-206,-56.886 -159.885,-103 -103,-103" style="fill-rule:nonzero;"/>
        </g>
        <g transform="matrix(1,0,0,1,108,11.0266)">
            <path d="M0,193.947C-53.472,193.947 -96.973,150.444 -96.973,96.973C-96.973,43.502 -53.472,0 0,0C53.472,0 96.974,43.502 96.974,96.973C96.974,150.444 53.472,193.947 0,193.947M0,3.288C-51.659,3.288 -93.686,45.315 -93.686,96.973C-93.686,148.632 -51.659,190.659 0,190.659C51.659,190.659 93.686,148.632 93.686,96.973C93.686,45.315 51.659,3.288 0,3.288" style="fill:white;fill-rule:nonzero;"/>
        </g>
        <g transform="matrix(0.942428,0.33441,0.33441,-0.942428,42.574,129.476)">
            <path d="M2.574,-0.443C-0.679,-1.597 -3.299,0.888 -3.327,5.16C-3.333,9.379 -0.734,13.778 2.574,14.951C5.827,16.106 8.466,13.566 8.473,9.347C8.499,5.074 5.826,0.711 2.574,-0.443" style="fill:white;fill-rule:nonzero;"/>
        </g>
        <g transform="matrix(1,0,0,1,94.8706,123.967)">
            <path d="M0,-9.36C-6.144,0.118 -15.211,4.212 -20.417,4.212C-24.806,4.212 -26.912,1.522 -27.378,-1.637L-41.771,25.273L-51.073,25.273L-20.066,-32.41L-10.823,-32.41L-12.929,-28.491C-9.536,-31.884 -5.441,-34.633 -1.463,-34.633C6.494,-34.633 10.589,-25.681 0,-9.36M-5.85,-28.023C-8.893,-28.023 -14.392,-22.874 -18.136,-16.556C-21.938,-10.178 -22.524,-5.089 -19.482,-5.089C-16.498,-5.089 -10.998,-10.178 -7.196,-16.556C-3.452,-22.874 -2.809,-28.023 -5.85,-28.023" style="fill:white;fill-rule:nonzero;"/>
        </g>
        <g transform="matrix(1,0,0,1,140.621,120.459)">
            <path d="M0,-22.466C-5.266,-14.569 -16.791,-5.967 -24.396,-2.283C-28.373,7.956 -34.342,9.887 -40.309,9.887C-43.936,9.887 -49.084,8.716 -48.148,3.626C-47.446,-0.411 -40.543,-1.756 -33.055,-3.745C-32.469,-5.5 -32.001,-7.607 -31.476,-10.355C-31.006,-13.105 -30.598,-16.031 -30.013,-18.839C-36.389,-12.754 -55.109,0.175 -58.796,3.685L-56.456,-2.926C-55.052,-4.096 -36.857,-17.786 -27.965,-25.332C-26.327,-28.844 -23.636,-31.358 -19.015,-31.651C-8.775,-32.353 -19.54,-23.168 -19.54,-23.168L-21.881,-11.468C-22.114,-10.005 -22.466,-8.6 -22.815,-7.313C-16.674,-10.064 -9.068,-15.329 -0.527,-26.445C0.878,-27.614 0.468,-23.227 0,-22.466M-35.453,1.637C-38.846,2.691 -41.42,3.626 -41.655,4.855C-42.063,7.019 -39.139,6.551 -37.676,4.563C-36.974,3.626 -36.213,2.807 -35.453,1.637" style="fill:white;fill-rule:nonzero;"/>
        </g>
        <g transform="matrix(1,0,0,1,142.435,72.6617)">
            <path d="M0,57.684C-3.276,57.684 -5.031,55.693 -3.452,51.365C-6.904,54.816 -11.057,57.684 -15.095,57.684C-23.05,57.684 -25.449,48.323 -17.142,35.686C-8.834,23.049 -1.346,18.838 3.802,18.838C7.137,18.838 9.595,21.879 10.296,25.331C16.965,12.811 23.81,0 23.81,0L33.053,0C33.053,0 14.684,34.399 12.167,39.137C7.43,47.621 7.488,50.897 10.706,51.482C5.675,56.28 2.457,57.684 0,57.684M3.686,36.974C7.488,30.655 8.073,25.507 5.089,25.507C2.047,25.507 -3.452,30.655 -7.255,36.974C-10.999,43.29 -11.584,48.441 -8.601,48.441C-5.558,48.441 -0.059,43.29 3.686,36.974" style="fill:white;fill-rule:nonzero;"/>
        </g>
    </g>
</svg>
